<svg width="72" height="72" viewBox="0 0 72 72" fill="none" xmlns="http://www.w3.org/2000/svg">
<path d="M71.9961 34.02C71.9961 15.2807 55.8798 0 35.9974 0C16.1151 0 0 15.2807 0 34.02C0 34.5045 0 35.8425 0 36.014C0 55.8975 14.0876 72 35.9961 72C58.0413 72 72 55.9012 72 36.0158L71.9961 34.02Z" fill="#2D3277"/>
<path d="M70.6187 34.0033C70.6187 51.673 55.1214 65.9958 36.0026 65.9958C16.8837 65.9958 1.39032 51.673 1.39032 34.0033C1.39032 16.3336 16.8876 2.00885 36.0026 2.00885C55.1175 2.00885 70.6187 16.3336 70.6187 34.0033Z" fill="#F7D032"/>
<path d="M70.6187 34.0033C70.6187 51.673 55.1214 65.9958 36.0026 65.9958C16.8837 65.9958 1.39032 51.673 1.39032 34.0033C1.39032 16.3336 16.8876 2.00885 36.0026 2.00885C55.1175 2.00885 70.6187 16.3336 70.6187 34.0033Z" fill="#F7D032"/>
<path d="M24.5099 23.9086C24.4931 23.9608 24.1474 24.4677 24.3693 24.8907C24.9174 25.8989 26.6044 26.4784 28.3107 25.9249C29.3257 25.5951 30.6322 24.0987 31.8896 22.6526C33.2568 21.0836 34.6135 19.5127 35.9755 18.8865C37.42 18.2212 38.3434 18.5138 38.9547 18.7766C39.6254 19.0654 40.4147 19.7083 41.6709 21.0649C44.0414 23.6366 53.5647 35.6487 55.213 37.7265C56.5375 36.86 62.4277 33.1963 70.4317 30.6452C69.7352 24.4789 67.1403 18.8381 63.2093 14.2222C57.7099 17.5522 51.0098 19.2909 44.4528 14.662C44.4193 14.6433 40.8713 12.2152 37.3697 12.3345C32.1734 12.5096 29.9164 15.7633 27.5304 19.2052L24.5099 23.9086Z" fill="white"/>
<path d="M54.8222 39.031C54.71 38.8875 43.6248 24.8684 41.1125 22.144C39.6602 20.5675 38.8503 20.1668 38.0017 20.0121C37.5045 19.9527 37.0041 20.0214 36.5236 20.2152C35.3539 20.6737 33.8255 22.1496 32.4713 23.7037C31.0655 25.3212 29.741 26.8437 28.5132 27.2444C26.9436 27.7531 25.0309 27.1531 24.1526 26.2996C23.841 26.0241 23.5897 25.6268 23.4278 25.1535C23.1067 24.069 23.6999 23.2043 23.7992 23.0608L26.8572 18.2791C27.2131 17.7647 27.5717 17.2523 27.9392 16.7491C26.996 16.9523 26.0645 17.2556 25.1522 17.6567C24.043 18.1058 22.9764 18.5344 21.8982 18.5344C21.4468 18.5344 19.035 17.9623 18.5772 17.789C15.8081 16.6932 13.3783 15.6292 9.7503 13.1805C5.40007 17.8561 2.49046 23.7056 1.65085 30.1496C2.27507 30.39 3.28364 30.8223 3.70538 30.9565C13.5472 34.1244 16.6142 37.3781 17.1701 38.0582C17.4967 37.5254 17.9028 37.1066 18.3577 36.8335C18.8127 36.5604 19.3046 36.4402 19.7964 36.4818C20.2882 36.5234 20.767 36.7259 21.1968 37.0738C21.6266 37.4218 21.996 37.9062 22.2774 38.4906C22.9411 37.7148 23.7697 37.2936 24.6234 37.2979C25.1023 37.3045 25.5772 37.4247 26.0292 37.6539C26.4678 37.8567 26.8715 38.1924 27.2133 38.6384C27.5551 39.0844 27.8272 39.6305 28.0115 40.2404C28.4411 39.9584 28.908 39.8154 29.3799 39.8211C29.9444 39.8315 30.5014 40.0091 31.0165 40.3429C32.8324 41.461 33.1136 44.0419 32.9511 45.9837C33.0795 45.9621 33.2087 45.9515 33.338 45.952C34.0127 45.9516 34.6759 46.2042 35.2628 46.6851C35.8497 47.166 36.3402 47.8587 36.6863 48.6955C37.0324 49.5323 37.2223 50.4846 37.2375 51.4592C37.2526 52.4338 37.0924 53.3974 36.7725 54.2558C37.3555 54.7291 38.8503 55.8062 40.1594 55.5602C41.2066 55.3739 41.6038 54.8502 41.747 54.5614C41.8424 54.3583 41.9469 54.1291 41.8515 53.9595L39.0786 49.4945C39.0786 49.4945 38.6207 48.8721 38.7716 48.6299C38.9225 48.3876 39.2101 48.738 39.41 48.9783C40.8287 50.6834 42.5505 53.2644 42.5505 53.2644C42.5789 53.2942 42.6937 53.6166 43.3321 53.7824C43.8802 53.9259 44.8514 53.8421 45.5246 53.037C45.7016 52.8225 45.8632 52.5828 46.007 52.3215C45.9977 52.3357 45.9874 52.3482 45.976 52.3587C46.6853 51.045 45.896 49.7182 45.896 49.7182L42.655 44.4556C42.655 44.4556 42.1907 43.8388 42.3493 43.5891C42.4886 43.3729 42.7891 43.6991 42.9942 43.9413C44.0259 45.1824 45.4717 47.2844 46.8633 49.2523C47.1355 49.5393 48.3568 50.6331 49.9741 49.0976C50.9569 48.1659 51.1529 47.0235 51.1259 46.1607C51.0575 45.0203 50.441 44.2059 50.441 44.2059L46.0121 37.7731C46.0121 37.7731 45.5439 37.1973 45.709 36.9047C45.8445 36.6606 46.1475 37.0147 46.3462 37.2532C47.7648 38.9602 51.5773 44.0196 51.5773 44.0196C51.6301 44.0736 52.9495 45.4303 54.5823 43.9301C55.164 43.3934 55.538 42.5828 55.5702 41.638C55.583 41.1515 55.5231 40.6667 55.3947 40.2165C55.2663 39.7664 55.0724 39.3614 54.8261 39.0291" fill="white"/>
<path d="M33.3406 47.1857C32.6545 47.1745 31.9026 47.7653 31.8058 47.6777C31.7491 47.6255 31.8471 47.2286 31.9116 46.9975C31.9761 46.7664 32.8815 42.84 30.676 41.4722C28.9904 40.4268 27.9586 41.6027 27.6026 42.1375C27.5124 42.2754 27.4737 42.2642 27.4595 42.0853C27.4247 41.3791 27.2015 39.4615 25.7493 38.8223C23.6703 37.9018 22.3303 39.9982 21.9936 40.7548C21.9232 39.9783 21.6736 39.2589 21.2851 38.7127C20.8967 38.1665 20.3922 37.8255 19.8531 37.7448C19.314 37.6642 18.7718 37.8485 18.3141 38.2681C17.8565 38.6876 17.5101 39.3179 17.331 40.057C17.1519 40.7961 17.1505 41.6009 17.3271 42.3413C17.5037 43.0817 17.8479 43.7145 18.3041 44.1373C18.7603 44.5602 19.3018 44.7484 19.8412 44.6716C20.3806 44.5948 20.8863 44.2574 21.2765 43.714C21.2894 43.7345 21.2946 43.7662 21.2894 43.8333C21.1876 44.6961 21.0005 47.8324 23.273 49.1107C24.1836 49.6195 24.96 49.2412 25.6023 48.5889C25.7932 48.3933 25.8241 48.4753 25.797 48.7362C25.7145 49.543 25.8189 51.2686 27.4943 52.2526C28.7711 52.998 29.5256 52.2358 30.0183 51.5724C30.235 51.291 30.293 51.3357 30.3046 51.7755C30.3316 52.6344 30.5326 53.463 30.8826 54.1584C31.2326 54.8537 31.7162 55.3853 32.2734 55.6871C32.8306 55.989 33.4369 56.0477 34.017 55.8562C34.5971 55.6646 35.1256 55.2312 35.5367 54.6096C35.9479 53.988 36.2236 53.2057 36.3298 52.3597C36.436 51.5136 36.368 50.6412 36.1341 49.8506C35.9002 49.06 35.5108 48.386 35.0142 47.9122C34.5176 47.4385 33.9357 47.1859 33.3406 47.1857Z" fill="white"/>
<path d="M33.3406 55.6515C32.6138 55.6576 31.9138 55.2554 31.3885 54.5297C30.8631 53.804 30.5536 52.8117 30.5251 51.7624C30.5251 51.576 30.5084 51.0803 30.2169 51.0803C30.0848 51.103 29.9631 51.1952 29.8751 51.3394C29.5398 51.7903 29.1142 52.245 28.4925 52.245C28.1786 52.2354 27.8689 52.138 27.5807 51.9581C25.9737 51.0263 25.9531 49.4237 26.0175 48.7901C26.0334 48.7072 26.0363 48.6202 26.026 48.5354C26.0157 48.4507 25.9926 48.3703 25.9582 48.3L25.8602 48.1752H25.7596C25.6572 48.1852 25.5597 48.242 25.481 48.3373C25.0889 48.7737 24.6113 49.0196 24.1165 49.0398C23.8557 49.0363 23.5976 48.9624 23.3556 48.8218C21.2404 47.6329 21.4055 44.7482 21.5087 43.8798C21.5197 43.8072 21.5171 43.7316 21.5013 43.6609C21.4854 43.5901 21.4568 43.5268 21.4184 43.4773L21.2675 43.2909L21.1282 43.4866C20.7725 43.9843 20.3109 44.294 19.8182 44.3655C19.3255 44.437 18.8305 44.2661 18.4134 43.8805C17.9963 43.495 17.6814 42.9172 17.5198 42.2409C17.3583 41.5646 17.3594 40.8293 17.5231 40.154C17.6867 39.4787 18.0034 38.903 18.4217 38.5201C18.84 38.1372 19.3355 37.9696 19.828 38.0442C20.3205 38.1189 20.7811 38.4316 21.1353 38.9316C21.4894 39.4316 21.7164 40.0898 21.7795 40.7994L21.8556 41.6492L22.1793 40.928C22.2154 40.8442 23.1041 38.9042 24.7356 38.908C25.0593 38.9103 25.381 38.9826 25.69 39.1223C26.99 39.6962 27.2105 41.4032 27.2454 42.1039C27.2686 42.5176 27.4723 42.5381 27.5123 42.5381C27.5618 42.5341 27.6103 42.5155 27.6546 42.4834C27.699 42.4514 27.7383 42.4066 27.7703 42.3517C27.9787 42.0382 28.2291 41.7894 28.5063 41.6206C28.7835 41.4517 29.0816 41.3663 29.3824 41.3697C29.8005 41.3805 30.2127 41.515 30.5935 41.7647C32.657 43.0468 31.7246 46.8446 31.713 46.8837C31.535 47.5117 31.5285 47.7875 31.6962 47.9497L31.7762 48.0056H31.8381C31.9755 47.982 32.11 47.9312 32.2379 47.8546C32.5901 47.6533 32.9624 47.5351 33.3406 47.5043C33.716 47.4927 34.0892 47.5895 34.4384 47.7891C34.7875 47.9886 35.1056 48.2869 35.3739 48.6664C35.6423 49.0459 35.8555 49.499 36.001 49.9991C36.1465 50.4992 36.2215 51.0363 36.2215 51.5788C36.2215 52.1214 36.1465 52.6584 36.001 53.1586C35.8555 53.6587 35.6423 54.1118 35.3739 54.4913C35.1056 54.8708 34.7875 55.1691 34.4384 55.3686C34.0892 55.5682 33.716 55.665 33.3406 55.6534M55.2517 37.3538C51.8365 33.0491 43.9434 23.1335 41.8063 20.8171C40.5837 19.4903 39.7531 18.7878 39.0205 18.4728C38.5781 18.272 38.1172 18.1689 37.6534 18.1672C37.0621 18.1768 36.4753 18.3176 35.9136 18.5847C34.5323 19.2182 33.1562 20.7985 31.8252 22.3266L31.7568 22.4048C30.5174 23.8304 29.2354 25.3026 28.2655 25.6175C27.8421 25.7539 27.4096 25.8232 26.9758 25.8243C25.8899 25.8243 24.9123 25.3697 24.5473 24.6951C24.4866 24.5833 24.5266 24.4025 24.6685 24.136L24.6853 24.1006L27.6903 19.4232C30.0415 16.0261 32.2637 12.8209 37.3787 12.6513H37.6366C40.821 12.6513 44.0066 14.7142 44.3625 14.9527C47.3483 17.0585 50.4242 18.1206 53.5273 18.13C56.7516 18.13 60.0881 16.9765 63.5871 14.6471C63.2002 14.1719 62.7888 13.7153 62.3696 13.2551C59.2937 15.1819 56.3608 16.1547 53.5325 16.1528C50.6435 16.1528 47.7584 15.1484 44.9558 13.1712C44.8088 13.0668 41.2917 10.6741 37.6341 10.6722H37.3465C33.0504 10.8195 30.6283 13.0221 29.0007 14.9583C27.4182 15.0142 26.0524 15.5677 24.8362 16.054C23.7528 16.4919 22.8165 16.8702 21.9008 16.8684C21.5267 16.8684 20.8483 16.8181 20.789 16.8162C19.7379 16.7696 14.4449 14.8949 10.2365 12.5898C9.80704 13.0314 9.39303 13.4861 8.99064 13.9483C13.3886 16.5572 18.7409 18.566 20.4292 18.7244C20.8986 18.7691 21.3991 18.8455 21.8995 18.8493C23.0164 18.8493 24.132 18.3964 25.2102 17.9585C25.855 17.6995 26.5528 17.42 27.2931 17.2131C27.0945 17.4908 26.8984 17.7722 26.6998 18.061L23.6483 22.8334C23.4084 23.1819 22.8861 24.1155 23.2305 25.269C23.4074 25.7995 23.6858 26.2457 24.0327 26.5548C24.7614 27.2648 26.064 27.7419 27.2737 27.7419C27.7074 27.7465 28.14 27.6809 28.5635 27.5462C29.8429 27.1325 31.1855 25.5877 32.6054 23.9553C33.7404 22.6508 35.3487 21.0035 36.5804 20.519C36.9419 20.3798 37.3141 20.306 37.6882 20.2991C37.7835 20.2994 37.8786 20.3069 37.9733 20.3214C38.7897 20.4724 39.5751 20.8805 40.9809 22.3955C43.4868 25.1162 54.5733 39.1297 54.6829 39.2676C54.9035 39.5691 55.077 39.9352 55.1918 40.3415C55.3066 40.7477 55.36 41.1846 55.3484 41.6231C55.3226 42.4412 55.0079 43.1661 54.4624 43.6729C54.0307 44.0876 53.5258 44.3146 53.0075 44.327C52.5513 44.327 52.1042 44.141 51.7178 43.7903C51.6766 43.7419 47.8796 38.7086 46.4816 37.0165C46.2597 36.75 46.0418 36.5097 45.8251 36.5097C45.7693 36.5085 45.7141 36.5256 45.6636 36.5599C45.6131 36.5941 45.5686 36.6445 45.5336 36.7072C45.3131 37.1004 45.5594 37.6389 45.8509 37.9986L50.2875 44.4426C50.2875 44.4519 50.8408 45.188 50.9001 46.1812C50.9363 47.249 50.5816 48.1416 49.8464 48.8386C49.3846 49.3065 48.837 49.5659 48.273 49.584C47.8228 49.5808 47.3833 49.3864 47.0091 49.0249L46.3719 48.1174C45.2112 46.4645 44.0079 44.7631 43.1296 43.6934C42.9142 43.4363 42.6846 43.1977 42.4667 43.1977C42.4145 43.1973 42.3628 43.2121 42.3147 43.2412C42.2666 43.2704 42.2231 43.3133 42.1868 43.3673C42.0875 43.5313 42.0165 43.8202 42.2668 44.2991C42.335 44.4272 42.41 44.5475 42.4912 44.6587L45.7284 49.9157C45.7567 49.9622 46.3964 51.058 45.8019 52.1519L45.6871 52.3624C45.5934 52.5111 45.4931 52.6505 45.3866 52.7799C44.8333 53.4358 44.0969 53.5048 43.8041 53.5048C43.6576 53.5065 43.5112 53.4891 43.3669 53.4526C43.047 53.3706 42.8329 53.2401 42.7285 53.0631L42.6898 53.0053C42.5131 52.7407 40.8842 50.3331 39.53 48.7025C39.352 48.4882 39.1301 48.218 38.8993 48.218C38.8443 48.2174 38.7899 48.2337 38.7396 48.2658C38.6894 48.2979 38.6444 48.3452 38.6078 48.4044C38.3408 48.8274 38.7368 49.461 38.9122 49.6902L41.6748 54.0918C41.6492 54.1879 41.6135 54.2778 41.569 54.3582C41.4697 54.5595 41.1344 55.044 40.1335 55.2248C40.012 55.2466 39.8897 55.2572 39.7673 55.2564C38.7355 55.2564 37.6315 54.5315 37.0589 54.0974C37.3202 53.3121 37.4576 52.4529 37.4612 51.5816C37.4612 50.0023 37.0277 48.4876 36.2556 47.3696C35.4836 46.2517 34.4362 45.6219 33.3432 45.6184H33.1948C33.2671 44.1276 33.1213 41.2783 31.1042 40.0279C30.5624 39.6764 29.9763 39.4899 29.3824 39.4801C28.9509 39.4762 28.5227 39.5887 28.1198 39.8118C27.9127 39.2277 27.628 38.7083 27.2819 38.2833C26.9358 37.8583 26.535 37.5362 26.1027 37.3352C25.6282 37.0933 25.1291 36.9674 24.6259 36.9625C23.7997 36.9553 22.9931 37.3272 22.3225 38.0247C22.0175 37.4727 21.6354 37.02 21.201 36.6961C20.7667 36.3722 20.2899 36.1844 19.8019 36.145C19.3138 36.1056 18.8255 36.2155 18.3689 36.4674C17.9123 36.7194 17.4976 37.1078 17.152 37.6073C16.293 36.6587 12.8804 33.5281 3.75437 30.526C3.31329 30.3806 2.29828 29.9669 1.67663 29.6967C1.57415 30.4118 1.49667 31.1339 1.44448 31.8602C1.44448 31.8602 3.12112 32.4454 3.45903 32.5534C12.7811 35.5444 15.8636 38.6564 16.3833 39.2434C16.1624 40.0105 16.076 40.8445 16.1315 41.6714C16.1871 42.4984 16.383 43.2927 16.7019 43.9841C17.0208 44.6754 17.4529 45.2424 17.9597 45.6348C18.4666 46.0271 19.0326 46.2328 19.6076 46.2334C19.8239 46.235 20.0399 46.2069 20.2525 46.1495C20.544 48.1994 21.4713 49.7498 22.8887 50.5474C23.2857 50.7728 23.708 50.8909 24.1346 50.8959C24.4029 50.8961 24.6702 50.8479 24.9303 50.7524C25.1883 51.7139 25.7802 52.9103 27.0983 53.6818C27.5327 53.9451 27.9983 54.0844 28.4693 54.0918C28.8328 54.0922 29.1935 53.9994 29.5346 53.8178C29.7929 54.7316 30.2045 55.5381 30.7324 56.1645C31.2603 56.791 31.8877 57.2178 32.5583 57.4064C33.2288 57.595 33.9213 57.5395 34.5732 57.2448C35.2252 56.9501 35.8161 56.4256 36.2928 55.7186C36.957 56.2534 38.3563 57.2206 39.775 57.2224C39.9513 57.2208 40.1274 57.2046 40.3025 57.174C41.7122 56.9168 42.3661 56.1192 42.6691 55.4968C42.7236 55.3877 42.772 55.2724 42.8136 55.1521C43.1761 55.3125 43.5527 55.3972 43.9318 55.4037C44.7056 55.4037 45.4395 55.031 46.1849 54.2408C46.9304 53.4507 47.4398 52.3773 47.5146 51.4456C47.5159 51.4314 47.5159 51.417 47.5146 51.4027C47.7628 51.4772 48.0156 51.5146 48.2691 51.5145C49.0987 51.5009 49.9068 51.1312 50.5906 50.4523C52.0274 49.0939 52.2763 47.3161 52.2531 46.1514C52.5046 46.228 52.7609 46.2667 53.0179 46.2669C53.7901 46.2541 54.5433 45.9196 55.1872 45.3035C55.6136 44.9265 55.9723 44.4093 56.234 43.794C56.4958 43.1787 56.6533 42.4828 56.6936 41.7629C56.7472 40.7593 56.5802 39.757 56.2164 38.8987C58.6217 37.4079 64.1224 34.5008 70.5981 32.3913C70.5557 31.6682 70.4882 30.9486 70.3956 30.2353C65.1999 31.8947 60.1275 34.2762 55.2491 37.3464" fill="#2D3277"/>
</svg>
