<svg width="72" height="72" viewBox="0 0 72 72" fill="none" xmlns="http://www.w3.org/2000/svg">
<g clip-path="url(#clip0_123_2)">
<path d="M32.6809 0.140233L30.6572 0.321316L15.3136 15.653L0.000142097 30.9545L0.0303461 35.723C0.0303461 39.9784 0.120958 40.7329 0.845854 43.1172C3.4434 51.5677 8.97073 57.4831 17.156 60.5313C20.5389 61.7989 25.9454 62.4025 29.2376 61.8593L30.3854 61.648L28.7846 60.5917C26.6099 59.143 22.8646 55.3403 21.3242 53.0466C18.0017 48.1272 16.4915 43.4492 16.2499 37.5036C16.0083 31.6486 16.854 27.4234 19.2401 22.685C20.7201 19.7273 21.7168 18.2485 23.7707 15.985C32.3486 6.59885 45.8498 3.55062 57.6596 8.34932C58.8375 8.8322 59.8343 9.16419 59.8947 9.07365C60.1363 8.86238 55.3037 5.51235 52.8571 4.21459C46.9372 1.04565 39.2351 -0.493556 32.6809 0.140233Z" fill="black"/>
<path d="M42.4972 10.311C41.8629 10.4619 42.0139 10.6128 43.7053 11.9106C47.2392 14.6268 50.8335 18.8219 52.6457 22.4134C55.8775 28.7211 56.7233 36.5982 54.9714 43.4793C52.5853 52.7749 45.2759 60.9538 36.547 64.1228C29.7209 66.5976 21.8678 66.6278 15.5854 64.2737C11.8703 62.8552 11.6891 62.9759 14.4377 64.998C21.0523 69.8571 27.7878 71.9999 36.4262 71.9999H41.0776L56.4514 56.638L71.8555 41.246L71.9763 37.5036C72.1877 31.709 71.0098 27.2121 68.0498 22.2927C64.969 17.162 58.7771 12.6047 52.4041 10.8543C50.7429 10.4016 43.8262 10.0394 42.4972 10.311Z" fill="black"/>
</g>
<defs>
<clipPath id="clip0_123_2">
<rect width="72" height="72" fill="white"/>
</clipPath>
</defs>
</svg>
